<svg width="516" height="513" viewBox="0 0 516 513" fill="none" xmlns="http://www.w3.org/2000/svg">
<path d="M385.68 0.0899658L385.36 30.1C385.359 30.2418 385.33 30.382 385.274 30.5125C385.219 30.643 385.138 30.7614 385.037 30.8607C384.936 30.9601 384.816 31.0386 384.684 31.0916C384.553 31.1447 384.412 31.1713 384.27 31.17L358.11 31.08C357.881 31.08 357.662 31.1713 357.499 31.3342C357.336 31.4971 357.243 31.7183 357.24 31.95L357.21 40.03C357.21 40.1166 357.17 40.16 357.09 40.16H356.8C356.574 40.1666 356.454 40.0567 356.44 39.83L356.07 32.43C356.037 31.81 355.714 31.5 355.1 31.5L12.1304 31.31L12.0904 16.73C12.0904 16.3566 12.2737 16.1666 12.6403 16.16L28.4404 15.86C28.767 15.8533 28.9337 15.69 28.9404 15.37L29.2903 0.779968C29.3037 0.319968 29.5437 0.0899658 30.0103 0.0899658H385.68Z" fill="#FFFBEA"/>
<path d="M402.84 16.26L403.01 445.61C403.01 445.753 402.954 445.891 402.852 445.992C402.751 446.093 402.614 446.15 402.47 446.15L386.22 446.08C386.154 446.079 386.088 446.091 386.026 446.116C385.964 446.141 385.908 446.178 385.86 446.226C385.813 446.273 385.775 446.33 385.749 446.392C385.724 446.455 385.71 446.522 385.71 446.59L385.72 462.6C385.72 462.764 385.655 462.922 385.539 463.038C385.423 463.155 385.265 463.22 385.1 463.22C284.087 463.773 183.04 463.727 81.9604 463.08C64.7704 462.97 47.5204 463.22 30.3804 463.06C29.6004 463.053 29.1738 462.663 29.1004 461.89C28.6071 456.517 28.6171 451.43 29.1304 446.63C29.5904 446.823 29.9504 446.92 30.2104 446.92C60.0437 446.993 89.8737 446.983 119.7 446.89C137.86 446.83 156.52 447.28 174.57 447.03C178.91 446.97 183.44 447.47 186.65 443.89C187.11 443.37 187.37 442.7 187.43 441.88C187.777 436.56 187.767 431.63 187.4 427.09C187.374 426.737 187.21 426.463 186.91 426.27C185.637 425.457 184.2 425.377 182.6 426.03L175.23 426.34C174.577 426.367 174.254 426.05 174.26 425.39L174.33 418.25C174.33 417.823 174.12 417.61 173.7 417.61C133.314 417.657 93.4671 417.67 54.1604 417.65C49.5004 417.65 44.8871 417.57 40.3204 417.41C39.9004 417.397 39.6937 417.6 39.7004 418.02L39.7104 425.12C39.7104 425.222 39.6902 425.323 39.6509 425.417C39.6115 425.511 39.5539 425.596 39.4813 425.668C39.4088 425.74 39.3227 425.796 39.2281 425.834C39.1336 425.872 39.0324 425.891 38.9304 425.89L29.4704 425.76C29.4118 425.76 29.3537 425.772 29.2997 425.794C29.2456 425.817 29.1967 425.85 29.1557 425.892C29.1147 425.934 29.0825 425.984 29.061 426.039C29.0395 426.093 29.0291 426.151 29.0304 426.21L29.3004 442.83L27.1704 445.13C26.8971 445.417 26.9337 445.657 27.2804 445.85C27.5204 445.983 27.9037 446.04 28.4304 446.02L11.9104 446.15L1.2604 445.48C3.6804 445.34 6.2604 445.05 8.6104 445.73C9.40374 445.957 10.0871 445.843 10.6604 445.39C11.2271 444.943 11.4837 444.197 11.4304 443.15C11.2171 438.783 11.1471 434.203 11.2204 429.41C11.2538 427.003 11.2504 424.597 11.2104 422.19C10.9771 408.63 10.9237 393.853 11.0504 377.86C11.2204 357.02 10.7904 336.16 10.9804 315.35C11.0404 308.057 11.0504 301.39 11.0104 295.35C10.7837 264.517 10.7937 233.683 11.0404 202.85C11.1137 194.223 11.0471 182.307 10.8404 167.1C10.6304 151.12 10.9304 135.64 11.0804 119.6C11.2304 104.3 10.9304 87.57 11.2004 71.44C11.4104 58.8 11.1004 45.79 11.4304 33.01C11.4328 32.8608 11.39 32.7146 11.3078 32.5912C11.2255 32.4679 11.1078 32.3732 10.9704 32.32C10.6371 32.2 10.2237 32.18 9.7304 32.26C11.3437 32.3133 12.1437 31.9966 12.1304 31.31L355.1 31.5C355.714 31.5 356.037 31.81 356.07 32.43L356.44 39.83C356.454 40.0567 356.574 40.1666 356.8 40.16H357.09C357.17 40.16 357.21 40.1166 357.21 40.03L357.24 31.95C357.243 31.7183 357.336 31.4971 357.499 31.3342C357.662 31.1713 357.881 31.08 358.11 31.08L384.27 31.17C384.412 31.1713 384.553 31.1447 384.684 31.0916C384.816 31.0386 384.936 30.9601 385.037 30.8607C385.138 30.7614 385.219 30.643 385.274 30.5125C385.33 30.382 385.359 30.2418 385.36 30.1L385.68 0.0899658L402.59 7.50765e-09C402.663 -1.20722e-05 402.736 0.0145529 402.803 0.0428162C402.871 0.0710795 402.932 0.112476 402.983 0.164612C403.034 0.216748 403.074 0.278578 403.101 0.346466C403.129 0.414354 403.142 0.486933 403.14 0.559998L402.84 16.26ZM61.2104 46.88L30.5704 46.91C29.4837 46.91 28.9471 47.4533 28.9604 48.54L29.1704 62.86L29.4304 364.82L29.3904 379.31C29.3904 379.379 29.4042 379.448 29.4309 379.511C29.4577 379.575 29.4969 379.633 29.5462 379.681C29.5956 379.73 29.6541 379.768 29.7183 379.793C29.7826 379.819 29.8513 379.831 29.9204 379.83C34.2804 379.783 38.5737 379.777 42.8004 379.81C43.2537 379.81 43.7004 379.887 44.1404 380.04C44.8537 380.293 45.2038 380.043 45.1904 379.29L44.9904 364.82C45.2637 364.653 45.7037 364.567 46.3104 364.56L60.2504 364.63C60.4697 364.633 60.6793 364.721 60.8344 364.876C60.9895 365.031 61.0778 365.241 61.0804 365.46L61.2004 380.4L45.1004 380.82C44.8862 380.825 44.682 380.912 44.5296 381.062C44.3771 381.213 44.288 381.416 44.2804 381.63L43.9604 391.69C43.9204 392.917 44.5171 393.56 45.7504 393.62C67.5604 394.62 91.6204 393.77 110.7 393.99C121.64 394.123 132.894 394.11 144.46 393.95C151.12 393.857 157.787 393.81 164.46 393.81C212.627 393.83 260.794 393.75 308.96 393.57C325.74 393.51 343.18 393.91 360.24 393.83C360.687 393.83 360.874 393.61 360.8 393.17C360.37 390.61 360.81 388.08 360.39 385.49C360.097 383.683 359.63 381.903 358.99 380.15C358.978 380.114 358.974 380.076 358.979 380.039C358.984 380.001 358.997 379.965 359.019 379.934C359.04 379.903 359.069 379.877 359.102 379.859C359.135 379.841 359.173 379.831 359.21 379.83L371.92 379.81C372.4 379.81 372.644 379.57 372.65 379.09L372.7 364.64L373.04 355.87L373.02 363.7C373.02 364.347 373.344 364.68 373.99 364.7L381.67 364.86C382.23 364.873 382.51 364.6 382.51 364.04C382.757 333.58 382.957 302.413 383.11 270.54C383.17 257.347 383.084 245.577 382.85 235.23C382.697 228.47 382.647 221.803 382.7 215.23C382.98 181.557 383.127 148.097 383.14 114.85C383.15 97.86 383.48 80.56 382.82 63.41C382.813 63.2352 382.77 63.0638 382.695 62.9057C382.62 62.7476 382.515 62.6062 382.384 62.4897C382.254 62.3731 382.101 62.2839 381.936 62.2273C381.77 62.1707 381.595 62.1478 381.42 62.16L372.94 62.7L372.99 47.43C372.992 47.3219 372.971 47.2147 372.93 47.1147C372.889 47.0146 372.828 46.9236 372.75 46.8472C372.673 46.7708 372.581 46.7105 372.48 46.6697C372.378 46.629 372.27 46.6087 372.16 46.61L335.41 46.88H61.2104ZM282.4 421.55L275.25 421.25L275.26 410.89C275.26 410.744 275.202 410.604 275.099 410.501C274.996 410.398 274.856 410.34 274.71 410.34L261.18 410.33C260.807 410.33 260.584 410.513 260.51 410.88C259.87 414.007 259.704 417.16 260.01 420.34C260.044 420.713 259.874 420.903 259.5 420.91L252.82 420.99C252.434 420.997 252.154 421.17 251.98 421.51C251.62 422.217 251.114 422.773 250.46 423.18C250.08 423.413 249.89 423.753 249.89 424.2L249.79 442.1C249.784 442.547 250.007 442.77 250.46 442.77L259.49 442.81C259.598 442.81 259.704 442.832 259.802 442.874C259.901 442.916 259.99 442.978 260.064 443.055C260.138 443.133 260.195 443.225 260.232 443.325C260.269 443.426 260.286 443.533 260.28 443.64L260 449.95C259.996 450.025 260.008 450.099 260.034 450.17C260.06 450.24 260.101 450.304 260.153 450.358C260.206 450.413 260.269 450.456 260.339 450.485C260.409 450.515 260.484 450.53 260.56 450.53L274.88 450.6C274.936 450.6 274.992 450.589 275.043 450.567C275.095 450.545 275.142 450.514 275.181 450.473C275.22 450.433 275.251 450.386 275.271 450.334C275.292 450.282 275.302 450.226 275.3 450.17L275.19 443.87C275.188 443.737 275.212 443.604 275.261 443.48C275.309 443.355 275.383 443.242 275.476 443.146C275.569 443.051 275.68 442.974 275.802 442.922C275.925 442.869 276.057 442.841 276.19 442.84L283.26 442.81C283.427 442.809 283.591 442.774 283.744 442.708C283.896 442.642 284.034 442.546 284.149 442.426C284.264 442.305 284.353 442.163 284.412 442.008C284.47 441.852 284.497 441.686 284.49 441.52C284.277 435.873 284.224 430.25 284.33 424.65C284.35 423.26 283.5 422.29 282.4 421.55ZM302.54 427.82L302.13 442.14C302.128 442.243 302.146 442.346 302.184 442.442C302.221 442.538 302.278 442.625 302.35 442.698C302.422 442.771 302.508 442.828 302.603 442.866C302.697 442.905 302.799 442.923 302.9 442.92L306.57 442.8L312.9 442.93C313.077 442.935 313.245 443.01 313.368 443.139C313.492 443.268 313.561 443.44 313.56 443.62L313.54 450.07C313.54 450.182 313.563 450.292 313.607 450.395C313.652 450.497 313.717 450.589 313.798 450.665C313.88 450.741 313.977 450.799 314.082 450.836C314.187 450.873 314.299 450.888 314.41 450.88C318.937 450.56 323.414 450.503 327.84 450.71C328.267 450.73 328.48 450.527 328.48 450.1L328.47 443.36C328.47 443.033 328.63 442.87 328.95 442.87L337.24 442.8C337.714 442.793 337.95 442.553 337.95 442.08L338.01 421.91C338.01 421.779 337.959 421.653 337.868 421.56C337.776 421.466 337.651 421.413 337.52 421.41L329.37 421.22C329.186 421.215 329.012 421.137 328.885 421.004C328.758 420.872 328.688 420.694 328.69 420.51L328.87 411.26C328.872 411.16 328.853 411.06 328.816 410.968C328.779 410.875 328.724 410.79 328.654 410.72C328.584 410.649 328.501 410.593 328.409 410.555C328.317 410.517 328.219 410.499 328.12 410.5L314.65 410.71C314.436 410.713 314.232 410.8 314.08 410.953C313.929 411.106 313.843 411.313 313.84 411.53L313.75 420.72C313.75 421.153 313.53 421.38 313.09 421.4L303.5 421.79C303.167 421.803 302.987 421.98 302.96 422.32L302.54 427.82ZM370.85 440.63C370.75 441.377 370.804 442.06 371.01 442.68C371.13 443.033 371.344 443.1 371.65 442.88C372.097 442.547 372.33 441.95 372.35 441.09C372.437 437.09 372.477 433.093 372.47 429.1C372.47 426.6 371.9 425.573 370.76 426.02C370.574 425.573 370.307 425.35 369.96 425.35C365.02 425.33 359.897 425.377 354.59 425.49C354.422 425.495 354.261 425.566 354.144 425.687C354.026 425.809 353.96 425.971 353.96 426.14L353.95 442.85C353.95 443.197 354.124 443.367 354.47 443.36L370.23 443.22C370.577 443.22 370.757 443.047 370.77 442.7L370.85 440.63Z" fill="#B8C6BF"/>
<path d="M424.74 34.03L424.93 42.8L424.94 67.88L424.93 461.12C425.21 461.847 425.014 462.217 424.34 462.23C417.58 462.35 410.604 462.42 403.41 462.44L386.69 463.18C386.388 463.193 386.102 463.321 385.892 463.539C385.681 463.757 385.563 464.047 385.56 464.35L385.35 479.84L368.01 479.83L67.2303 479.66L30.5903 479.69C30.1915 479.693 29.8079 479.536 29.5232 479.255C29.2384 478.974 29.0756 478.591 29.0703 478.19L28.9303 463.64C28.9277 463.397 28.8288 463.164 28.655 462.992C28.4811 462.82 28.2461 462.723 28.0003 462.72L13.4503 462.7C13.1318 462.7 12.826 462.576 12.598 462.353C12.3701 462.131 12.2381 461.828 12.2303 461.51L11.9104 446.15L28.4304 446.02C28.9237 446.167 29.1571 446.37 29.1304 446.63C28.6171 451.43 28.6071 456.517 29.1004 461.89C29.1738 462.663 29.6004 463.053 30.3804 463.06C47.5204 463.22 64.7704 462.97 81.9604 463.08C183.04 463.727 284.087 463.773 385.1 463.22C385.265 463.22 385.423 463.155 385.539 463.038C385.655 462.922 385.72 462.764 385.72 462.6L385.71 446.59C385.71 446.522 385.724 446.455 385.749 446.392C385.775 446.33 385.813 446.273 385.86 446.226C385.908 446.178 385.964 446.141 386.026 446.116C386.088 446.091 386.154 446.079 386.22 446.08L402.47 446.15C402.614 446.15 402.751 446.093 402.852 445.992C402.954 445.891 403.01 445.753 403.01 445.61L402.84 16.26L423.88 16.16C424.234 16.16 424.414 16.3333 424.42 16.68L424.74 34.03Z" fill="#56546E"/>
<path d="M460.89 46.32C460.87 47 460.31 47.35 459.21 47.37C453.797 47.47 448.287 47.5167 442.68 47.51L442.52 35.36L442.84 32.63C442.86 32.4826 442.932 32.3475 443.042 32.2499C443.153 32.1523 443.294 32.099 443.44 32.1L460.44 32.12C460.576 32.12 460.705 32.1737 460.801 32.2694C460.897 32.365 460.95 32.4947 460.95 32.63L460.89 46.32Z" fill="#FFFBEA"/>
<path d="M9.7304 32.26C10.2237 32.18 10.6371 32.2 10.9704 32.32C11.1078 32.3732 11.2255 32.4679 11.3078 32.5912C11.39 32.7146 11.4328 32.8608 11.4304 33.01C11.1004 45.79 11.4104 58.8 11.2004 71.44C10.9304 87.57 11.2304 104.3 11.0804 119.6C10.9304 135.64 10.6304 151.12 10.8404 167.1C11.0471 182.307 11.1137 194.223 11.0404 202.85C10.7937 233.683 10.7837 264.517 11.0104 295.35C11.0504 301.39 11.0404 308.057 10.9804 315.35C10.7904 336.16 11.2204 357.02 11.0504 377.86C10.9237 393.853 10.9771 408.63 11.2104 422.19C11.2504 424.597 11.2538 427.003 11.2204 429.41C11.1471 434.203 11.2171 438.783 11.4304 443.15C11.4837 444.197 11.2271 444.943 10.6604 445.39C10.0871 445.843 9.40374 445.957 8.6104 445.73C6.2604 445.05 3.6804 445.34 1.2604 445.48C0.980396 445.2 0.820324 445.087 0.780324 445.14C1.10699 431.953 1.18033 418.77 1.00033 405.59C0.906992 398.603 0.883651 391.943 0.930318 385.61C1.06365 369.283 0.893642 352.96 0.420308 336.64L0.550313 32.91C0.550313 32.5766 0.720323 32.4066 1.06032 32.4L9.7304 32.26Z" fill="#FFFBEA"/>
<path d="M424.74 34.03L425.13 35.36C425.277 35.8467 425.5 35.8866 425.8 35.48L426.37 34.7C426.61 34.38 426.93 34.2333 427.33 34.26C430.384 34.46 433.427 34.54 436.46 34.5C437.134 34.4933 437.807 34.4133 438.48 34.26C439.66 33.9866 440.534 34.4866 441.1 35.76C441.2 35.98 441.34 36.17 441.52 36.33C441.614 36.4033 441.717 36.4366 441.83 36.43C442.05 36.4033 442.18 36.2833 442.22 36.07C442.267 35.7766 442.367 35.54 442.52 35.36L442.68 47.51C442.047 50.81 441.777 54.2566 441.87 57.85C441.997 62.7633 442.067 67.43 442.08 71.85C442.114 87.99 442.157 103.657 442.21 118.85C442.25 130.263 442.237 141.267 442.17 151.86C442.124 158.96 442.104 165.623 442.11 171.85C442.224 246.303 442.294 319.137 442.32 390.35C442.327 414.377 442.32 437.127 442.3 458.6C442.3 459.367 442.707 460.097 443.52 460.79C437.36 460.297 431.164 460.407 424.93 461.12L424.94 67.88C425.394 68.3133 426.224 67.9766 427.43 66.87C427.535 66.7734 427.661 66.703 427.798 66.6647C427.936 66.6264 428.08 66.6211 428.22 66.6494C428.359 66.6778 428.49 66.7388 428.601 66.8275C428.713 66.9163 428.802 67.0302 428.86 67.16C429.26 68.0466 429.917 68.59 430.83 68.79C434.077 69.4966 436.754 68.8133 438.86 66.74C439.047 66.5532 439.295 66.4397 439.56 66.42C439.667 66.4066 439.77 66.3833 439.87 66.35C440.17 66.2366 440.36 66.03 440.44 65.73C441.454 62.1433 441.58 58.6 440.82 55.1C440.754 54.7666 440.554 54.6233 440.22 54.67C438.214 54.9233 436.164 55.24 434.07 55.62C432.56 55.9 431.14 55.28 429.64 55.21C429.44 55.2033 429.257 55.14 429.09 55.02L426.86 53.31C426.581 53.0981 426.36 52.8195 426.217 52.4998C426.073 52.18 426.013 51.8293 426.04 51.48L426.4 46.61C426.42 46.3767 426.32 46.2266 426.1 46.16C425.967 46.1133 425.897 46.02 425.89 45.88C425.824 44.8666 425.814 43.7867 425.86 42.64C425.86 42.58 425.847 42.5233 425.82 42.47C425.767 42.3566 425.687 42.28 425.58 42.24C425.447 42.1867 425.36 42.23 425.32 42.37C425.28 42.5366 425.15 42.68 424.93 42.8L424.74 34.03Z" fill="#292037"/>
<path d="M424.94 67.88L424.93 42.8C425.15 42.68 425.28 42.5366 425.32 42.37C425.36 42.23 425.447 42.1867 425.58 42.24C425.687 42.28 425.767 42.3566 425.82 42.47C425.847 42.5233 425.86 42.58 425.86 42.64C425.814 43.7867 425.824 44.8666 425.89 45.88C425.897 46.02 425.967 46.1133 426.1 46.16C426.32 46.2266 426.42 46.3767 426.4 46.61L426.04 51.48C426.013 51.8293 426.073 52.18 426.217 52.4998C426.36 52.8195 426.581 53.0981 426.86 53.31L429.09 55.02C429.257 55.14 429.44 55.2033 429.64 55.21C431.14 55.28 432.56 55.9 434.07 55.62C436.164 55.24 438.214 54.9233 440.22 54.67C440.554 54.6233 440.754 54.7666 440.82 55.1C441.58 58.6 441.454 62.1433 440.44 65.73C440.36 66.03 440.17 66.2366 439.87 66.35C439.77 66.3833 439.667 66.4066 439.56 66.42C439.295 66.4397 439.047 66.5532 438.86 66.74C436.754 68.8133 434.077 69.4966 430.83 68.79C429.917 68.59 429.26 68.0466 428.86 67.16C428.802 67.0302 428.713 66.9163 428.601 66.8275C428.49 66.7388 428.359 66.6778 428.22 66.6494C428.08 66.6211 427.936 66.6264 427.798 66.6647C427.661 66.703 427.535 66.7734 427.43 66.87C426.224 67.9766 425.394 68.3133 424.94 67.88Z" fill="#070000"/>
<path d="M460.89 46.32C461.07 46.8333 461.267 47.21 461.48 47.45L461.46 61.7099C461.46 62.6033 461.904 63.06 462.79 63.08C467.41 63.1933 472.05 63.35 476.71 63.55C477.464 63.5833 478.31 63.26 479.25 62.58C479.057 62.7333 479.017 62.9366 479.13 63.1899C479.184 63.3099 479.264 63.3833 479.37 63.4099C479.484 63.4499 479.597 63.4366 479.71 63.3699C479.424 63.7033 479.274 64.0299 479.26 64.3499C479.127 68.9366 479.034 73.4999 478.98 78.0399C478.978 78.1911 479.036 78.3371 479.143 78.4459C479.25 78.5547 479.397 78.6173 479.55 78.6199L497.99 78.89C498.424 79.45 498.83 79.7666 499.21 79.8399C500.31 80.0466 501.417 80.2699 502.53 80.5099L499.56 80.6299C499.416 80.6355 499.275 80.6771 499.15 80.7509C499.026 80.8247 498.921 80.9285 498.846 81.0531C498.771 81.1777 498.727 81.3192 498.719 81.4652C498.711 81.6112 498.739 81.7571 498.8 81.89C499.32 83.0033 499.49 84.2166 499.31 85.5299C499.297 85.6499 499.35 85.72 499.47 85.74L499.76 85.7899C499.92 85.8166 500.014 85.7499 500.04 85.5899L500.41 83.6299C500.47 83.2899 500.674 83.1199 501.02 83.1199H515.29C516.04 91.6699 515.43 100.21 515.54 108.77C515.62 114.643 515.66 120.367 515.66 125.94C515.647 232.913 515.627 331.133 515.6 420.6C515.594 428.22 515.677 435.37 515.85 442.05C515.853 442.163 515.833 442.276 515.791 442.381C515.75 442.487 515.688 442.583 515.609 442.664C515.529 442.745 515.435 442.809 515.33 442.853C515.226 442.897 515.114 442.92 515 442.92L498.61 442.81C498.177 442.81 497.96 443.023 497.96 443.45L497.78 459.85C497.778 460.095 497.679 460.329 497.504 460.501C497.33 460.673 497.095 460.77 496.85 460.77L443.52 460.79C442.707 460.097 442.3 459.367 442.3 458.6C442.32 437.127 442.327 414.377 442.32 390.35C442.294 319.137 442.224 246.303 442.11 171.85C442.104 165.623 442.124 158.96 442.17 151.86C442.237 141.267 442.25 130.263 442.21 118.85C442.157 103.657 442.114 87.99 442.08 71.85C442.067 67.43 441.997 62.7633 441.87 57.85C441.777 54.2566 442.047 50.81 442.68 47.51C448.287 47.5167 453.797 47.47 459.21 47.37C460.31 47.35 460.87 47 460.89 46.32ZM480.33 420.97C484.964 420.99 489.59 421.1 494.21 421.3C495.097 421.34 495.86 421.307 496.5 421.2C497.314 421.067 497.73 420.587 497.75 419.76L498.11 404.17C498.13 403.09 497.6 402.573 496.52 402.62L480.72 403.28C480.317 403.295 479.936 403.467 479.656 403.758C479.376 404.048 479.22 404.436 479.22 404.84L479.16 420.41C479.16 420.558 479.213 420.704 479.31 420.82C479.604 421.18 479.944 421.23 480.33 420.97Z" fill="#56546E"/>
<path d="M335.41 46.88L354.44 47.2C354.691 47.2026 354.93 47.3039 355.106 47.4818C355.282 47.6596 355.38 47.8998 355.38 48.15L355.47 62.11C355.473 62.3366 355.562 62.5534 355.721 62.7155C355.879 62.8775 356.094 62.9723 356.32 62.98C361.787 63.18 366.7 63.1667 371.06 62.94C371.29 62.9264 371.519 62.96 371.735 63.0387C371.951 63.1174 372.149 63.2396 372.317 63.3977C372.484 63.5559 372.618 63.7467 372.71 63.9586C372.801 64.1705 372.849 64.3989 372.85 64.63L372.94 94.31L373.04 355.87L372.7 364.64L356.58 364.82L340.97 365.15C340.657 365.157 340.5 365.317 340.5 365.63L340.41 379.1C340.41 379.453 340.25 379.703 339.93 379.85C339.69 379.963 339.517 380.133 339.41 380.36L61.2004 380.4L61.0804 365.46C61.0778 365.241 60.9895 365.031 60.8344 364.876C60.6793 364.721 60.4697 364.633 60.2504 364.63L46.3104 364.56C44.7304 363.98 43.2403 364.04 41.8403 364.74L29.4304 364.82L29.1704 62.86L60.8703 63.07C60.9565 63.07 61.0419 63.0531 61.1214 63.0203C61.2009 62.9875 61.273 62.9395 61.3335 62.879C61.394 62.8185 61.4417 62.7468 61.4737 62.668C61.5058 62.5892 61.5216 62.5049 61.5203 62.42L61.2104 46.88H335.41ZM52.4903 287.14L52.5403 328.94C52.5403 329.063 52.5647 329.184 52.6122 329.297C52.6597 329.41 52.7293 329.512 52.8168 329.598C52.9044 329.683 53.0082 329.751 53.1221 329.796C53.236 329.841 53.3578 329.863 53.4803 329.86L68.4303 329.55C68.5008 329.549 68.5708 329.561 68.6363 329.587C68.7017 329.612 68.7614 329.65 68.8116 329.699C68.8619 329.747 68.9019 329.805 68.9291 329.869C68.9563 329.932 68.9704 330.001 68.9703 330.07L68.9303 344.87C68.9303 344.974 68.9511 345.077 68.9915 345.173C69.032 345.269 69.0912 345.356 69.1658 345.429C69.2404 345.501 69.3287 345.558 69.4257 345.596C69.5226 345.634 69.6262 345.653 69.7303 345.65L84.8003 345.23C84.8952 345.227 84.9897 345.244 85.0778 345.279C85.1659 345.313 85.2458 345.366 85.3124 345.432C85.379 345.499 85.431 345.579 85.4651 345.666C85.4991 345.753 85.5145 345.847 85.5103 345.94L84.9703 358.32C84.9663 358.417 84.9816 358.514 85.0155 358.605C85.0494 358.696 85.101 358.779 85.1674 358.849C85.2337 358.919 85.3134 358.975 85.4015 359.013C85.4897 359.051 85.5845 359.07 85.6803 359.07L318.24 359.03C318.366 359.03 318.491 359.005 318.608 358.957C318.724 358.909 318.83 358.838 318.919 358.749C319.008 358.66 319.079 358.554 319.127 358.437C319.176 358.321 319.2 358.196 319.2 358.07L319.18 345.96C319.174 345.593 319.357 345.41 319.73 345.41L334.92 345.21C335.2 345.207 335.467 345.095 335.663 344.896C335.86 344.698 335.97 344.429 335.97 344.15L335.98 330.47C335.98 330.242 336.071 330.023 336.232 329.862C336.394 329.701 336.612 329.61 336.84 329.61L351.79 329.7C351.915 329.7 352.038 329.676 352.152 329.628C352.267 329.581 352.371 329.511 352.459 329.424C352.546 329.337 352.615 329.233 352.662 329.119C352.708 329.005 352.732 328.883 352.73 328.76L352.66 272.05L352.52 96.91C352.52 96.8251 352.487 96.7438 352.427 96.6837C352.367 96.6237 352.285 96.59 352.2 96.59L337.21 96.7C336.849 96.7027 336.501 96.5623 336.242 96.3094C335.984 96.0565 335.836 95.7116 335.83 95.35L335.63 82.38C335.624 81.7933 335.327 81.5033 334.74 81.51L320.22 81.67C320.081 81.6727 319.943 81.6472 319.814 81.595C319.685 81.5428 319.567 81.465 319.468 81.3662C319.37 81.2673 319.291 81.1495 319.239 81.0196C319.186 80.8897 319.159 80.7504 319.16 80.61L319.21 67.37C319.217 67.0367 319.05 66.87 318.71 66.87C241.02 66.88 162.81 67.23 85.6803 66.9C85.623 66.8987 85.566 66.9088 85.5127 66.9298C85.4594 66.9508 85.4108 66.9823 85.3698 67.0224C85.3288 67.0624 85.2962 67.1103 85.274 67.1631C85.2517 67.2159 85.2403 67.2727 85.2403 67.33V80.51C85.2403 80.8967 85.0503 81.09 84.6703 81.09L69.5003 81.24C69.1203 81.24 68.9303 81.43 68.9303 81.81L68.9403 94.76C68.9404 95.0811 68.8149 95.3895 68.5907 95.6193C68.3665 95.8492 68.0613 95.9822 67.7403 95.99L53.4403 96.29C53.007 96.3033 52.7903 96.5267 52.7903 96.96L52.4903 287.14Z" fill="#070000"/>
<path d="M372.94 62.7L372.94 94.31L372.85 64.63C372.849 64.3989 372.801 64.1705 372.71 63.9586C372.618 63.7467 372.484 63.5559 372.317 63.3977C372.149 63.2396 371.951 63.1174 371.735 63.0387C371.519 62.96 371.29 62.9264 371.06 62.94C366.7 63.1667 361.787 63.18 356.32 62.98C356.094 62.9723 355.879 62.8775 355.721 62.7155C355.562 62.5534 355.473 62.3366 355.47 62.11L355.38 48.15C355.38 47.8998 355.282 47.6596 355.106 47.4818C354.93 47.3039 354.691 47.2026 354.44 47.2L335.41 46.88L372.16 46.61C372.27 46.6087 372.378 46.629 372.48 46.6697C372.581 46.7105 372.673 46.7708 372.75 46.8472C372.828 46.9236 372.889 47.0146 372.93 47.1147C372.971 47.2147 372.992 47.3219 372.99 47.43L372.94 62.7Z" fill="#56546E"/>
<path d="M61.2104 46.88L61.5203 62.42C61.5216 62.5049 61.5058 62.5892 61.4737 62.668C61.4417 62.7468 61.394 62.8185 61.3335 62.879C61.273 62.9395 61.2009 62.9875 61.1214 63.0203C61.0419 63.0531 60.9565 63.07 60.8703 63.07L29.1704 62.86L28.9604 48.54C28.9471 47.4533 29.4837 46.91 30.5704 46.91L61.2104 46.88Z" fill="#56546E"/>
<path d="M479.25 62.58C478.31 63.26 477.464 63.5833 476.71 63.55C472.05 63.35 467.41 63.1933 462.79 63.08C461.904 63.06 461.46 62.6033 461.46 61.7099L461.48 47.45L478.87 47.42C479.21 47.42 479.38 47.59 479.38 47.93L479.25 62.58Z" fill="#FFFBEA"/>
<path d="M373.04 355.87L372.94 94.31L372.94 62.7L381.42 62.16C381.595 62.1478 381.77 62.1707 381.936 62.2273C382.101 62.2839 382.254 62.3731 382.384 62.4897C382.515 62.6062 382.62 62.7476 382.695 62.9057C382.77 63.0638 382.813 63.2352 382.82 63.41C383.48 80.56 383.15 97.86 383.14 114.85C383.127 148.097 382.98 181.557 382.7 215.23C382.647 221.803 382.697 228.47 382.85 235.23C383.084 245.577 383.17 257.347 383.11 270.54C382.957 302.413 382.757 333.58 382.51 364.04C382.51 364.6 382.23 364.873 381.67 364.86L373.99 364.7C373.344 364.68 373.02 364.347 373.02 363.7L373.04 355.87Z" fill="#FFFBEA"/>
<path d="M479.71 63.3699L496.86 63.73C497.454 63.7366 497.754 64.0366 497.76 64.63L497.99 78.89L479.55 78.6199C479.397 78.6173 479.25 78.5547 479.143 78.4459C479.036 78.3371 478.978 78.1911 478.98 78.0399C479.034 73.4999 479.127 68.9366 479.26 64.3499C479.274 64.0299 479.424 63.7033 479.71 63.3699Z" fill="#FFFBEA"/>
<path d="M352.66 272.05C352.494 273.257 352.424 274.493 352.45 275.76C352.464 276.153 352.34 276.2 352.08 275.9C352.047 275.86 352.034 275.813 352.04 275.76C352.058 275.58 352.037 275.399 351.977 275.229C351.918 275.058 351.822 274.903 351.696 274.773C351.571 274.644 351.418 274.543 351.25 274.479C351.081 274.414 350.9 274.387 350.72 274.4C349.494 274.487 348.344 274.307 347.27 273.86C346.204 273.42 345.09 273.13 343.93 272.99C342.137 272.763 340.244 272.533 338.25 272.3C337.976 272.268 337.697 272.303 337.44 272.403C337.182 272.503 336.953 272.664 336.772 272.872C336.591 273.08 336.465 273.33 336.403 273.598C336.342 273.866 336.348 274.145 336.42 274.41C336.534 274.817 336.39 275.153 335.99 275.42L335.65 270.34C335.63 269.94 335.42 269.733 335.02 269.72L330.53 269.58C330.21 269.567 329.917 269.477 329.65 269.31C328.957 268.877 328.157 268.673 327.25 268.7L334.94 268.68C335.654 268.68 336.01 268.323 336.01 267.61L336.06 245.43L335.6 114.71C335.594 114.297 335.387 114.09 334.98 114.09L319.71 114.1C319.511 114.1 319.321 114.021 319.18 113.88C319.039 113.74 318.96 113.549 318.96 113.35V98.34C318.96 98.1411 318.88 97.9503 318.738 97.8096C318.595 97.669 318.402 97.59 318.2 97.59L302.7 97.6C302.354 97.6066 302.184 97.4366 302.19 97.09L302.33 84.84C302.332 84.7446 302.314 84.6499 302.279 84.5614C302.243 84.4729 302.19 84.3923 302.123 84.3244C302.056 84.2565 301.976 84.2025 301.888 84.1657C301.8 84.1289 301.706 84.11 301.61 84.11L161.63 84.15L101.79 83.81C101.43 83.8033 101.25 83.98 101.25 84.34L101.17 96.89C101.17 97.0192 101.119 97.1434 101.028 97.2366C100.937 97.3298 100.812 97.3848 100.68 97.39L86.1804 97.94C86 97.9477 85.8295 98.0249 85.7047 98.1553C85.5798 98.2858 85.5102 98.4594 85.5104 98.64L85.3704 113.08C85.3637 113.667 85.067 113.963 84.4804 113.97L70.1704 114.11C70.0094 114.113 69.8557 114.178 69.7419 114.292C69.6281 114.405 69.563 114.559 69.5604 114.72L69.2804 127.17L69.2504 246.47L69.4204 269.87L69.7804 287.32C69.6204 283.887 69.5804 281.23 69.6604 279.35C69.6871 278.703 69.5004 278.213 69.1004 277.88C68.9071 277.733 68.8104 277.537 68.8104 277.29V276.83C68.8104 276.51 68.7071 276.473 68.5004 276.72C68.3737 276.873 68.3137 277.047 68.3204 277.24C68.347 277.613 68.2837 277.63 68.1304 277.29C68.0837 277.183 68.0004 277.137 67.8804 277.15C67.6671 277.177 67.4871 277.273 67.3404 277.44C66.3604 278.59 65.0804 278.6 63.8704 279.39C62.6304 280.197 61.3104 280.823 59.9104 281.27C58.8171 281.617 57.787 282 56.8204 282.42C55.5404 282.987 54.6104 283.557 54.0304 284.13C53.1437 284.997 52.8404 286.193 53.1204 287.72C53.1404 287.813 53.127 287.903 53.0804 287.99C53.067 288.023 53.047 288.05 53.0204 288.07C52.847 288.257 52.7604 288.22 52.7604 287.96C52.7604 287.547 52.6703 287.273 52.4903 287.14L52.7903 96.96C52.7903 96.5267 53.007 96.3033 53.4403 96.29L67.7403 95.99C68.0613 95.9822 68.3665 95.8492 68.5907 95.6193C68.8149 95.3895 68.9404 95.0811 68.9403 94.76L68.9303 81.81C68.9303 81.43 69.1203 81.24 69.5003 81.24L84.6703 81.09C85.0503 81.09 85.2403 80.8967 85.2403 80.51V67.33C85.2403 67.2727 85.2517 67.2159 85.274 67.1631C85.2962 67.1103 85.3288 67.0624 85.3698 67.0224C85.4108 66.9823 85.4594 66.9508 85.5127 66.9298C85.566 66.9088 85.623 66.8987 85.6803 66.9C162.81 67.23 241.02 66.88 318.71 66.87C319.05 66.87 319.217 67.0367 319.21 67.37L319.16 80.61C319.159 80.7504 319.186 80.8897 319.239 81.0196C319.291 81.1495 319.37 81.2673 319.468 81.3662C319.567 81.465 319.685 81.5428 319.814 81.595C319.943 81.6472 320.081 81.6727 320.22 81.67L334.74 81.51C335.327 81.5033 335.624 81.7933 335.63 82.38L335.83 95.35C335.836 95.7116 335.984 96.0565 336.242 96.3094C336.501 96.5623 336.849 96.7027 337.21 96.7L352.2 96.59C352.285 96.59 352.367 96.6237 352.427 96.6837C352.487 96.7438 352.52 96.8251 352.52 96.91L352.66 272.05Z" fill="#007553"/>
<path d="M515.29 83.1199H501.02C500.674 83.1199 500.47 83.2899 500.41 83.6299L500.04 85.5899C500.014 85.7499 499.92 85.8166 499.76 85.7899L499.47 85.74C499.35 85.72 499.297 85.6499 499.31 85.5299C499.49 84.2166 499.32 83.0033 498.8 81.89C498.739 81.7571 498.711 81.6112 498.719 81.4652C498.727 81.3192 498.771 81.1777 498.846 81.0531C498.921 80.9285 499.026 80.8247 499.15 80.7509C499.275 80.6771 499.416 80.6355 499.56 80.6299L502.53 80.5099C506.19 80.5366 509.87 80.56 513.57 80.58C514.39 80.58 514.89 80.78 515.07 81.18C515.27 81.6133 515.344 82.2599 515.29 83.1199Z" fill="#B8C6BF"/>
<path d="M161.63 84.15L161.34 110.6C161.334 111.22 161.02 111.53 160.4 111.53L130.68 111.63C130.52 111.63 130.44 111.713 130.44 111.88L130.6 140.11C130.601 140.272 130.538 140.428 130.427 140.545C130.315 140.662 130.162 140.732 130 140.74C120.474 141.12 110.974 141.217 101.5 141.03C101.39 141.029 101.281 141.006 101.18 140.962C101.078 140.919 100.986 140.856 100.909 140.777C100.832 140.698 100.772 140.605 100.731 140.502C100.69 140.4 100.669 140.29 100.67 140.18L100.83 128.15C100.832 128.014 100.806 127.879 100.755 127.753C100.704 127.627 100.628 127.512 100.532 127.415C100.437 127.318 100.323 127.242 100.197 127.189C100.071 127.137 99.9365 127.11 99.8004 127.11L69.2804 127.17L69.5604 114.72C69.563 114.559 69.6281 114.405 69.7419 114.292C69.8557 114.178 70.0094 114.113 70.1704 114.11L84.4804 113.97C85.067 113.963 85.3637 113.667 85.3704 113.08L85.5104 98.64C85.5102 98.4594 85.5798 98.2858 85.7047 98.1553C85.8295 98.0249 86 97.9477 86.1804 97.94L100.68 97.39C100.812 97.3848 100.937 97.3298 101.028 97.2366C101.119 97.1434 101.17 97.0192 101.17 96.89L101.25 84.34C101.25 83.98 101.43 83.8033 101.79 83.81L161.63 84.15Z" fill="#FFFBEA"/>
<path d="M336.06 245.43L322.04 245.78C320.687 245.813 320.057 245.153 320.15 243.8L320.6 237.27C320.613 237.068 320.584 236.866 320.515 236.676C320.447 236.486 320.341 236.312 320.203 236.165C320.065 236.017 319.899 235.9 319.715 235.82C319.53 235.74 319.331 235.699 319.13 235.7L292.33 235.59C291.888 235.59 291.463 235.762 291.146 236.07C290.828 236.378 290.643 236.798 290.63 237.24L290.42 244.45C290.416 244.598 290.381 244.744 290.316 244.878C290.252 245.012 290.16 245.131 290.047 245.227C289.934 245.323 289.802 245.394 289.66 245.436C289.517 245.478 289.368 245.49 289.22 245.47C285.367 244.937 281.42 245.177 277.38 246.19C277.507 245.797 277.164 245.48 276.35 245.24C275.997 245.14 275.557 245.093 275.03 245.1C266.764 245.267 258.49 245.307 250.21 245.22C248.37 245.207 246.444 245.103 244.43 244.91C244.57 241.997 244.034 239.297 242.82 236.81C241.77 234.65 240.12 234.06 237.92 233.74C233.534 233.093 230.097 234.343 227.61 237.49C226.35 239.08 226.16 243.12 226.18 245.09C226.227 249.683 226.12 254.153 225.86 258.5C225.848 258.726 225.75 258.938 225.586 259.094C225.423 259.25 225.206 259.338 224.98 259.34L214.54 259.5C214.238 259.506 213.942 259.406 213.705 259.216C213.467 259.026 213.303 258.759 213.24 258.46C211.97 252.21 212.28 246.03 204.21 245.27C197.69 244.66 193.27 252.81 193.91 258.19C193.97 258.717 193.734 258.983 193.2 258.99L182.8 259.16C182.614 259.163 182.428 259.128 182.255 259.058C182.081 258.989 181.923 258.885 181.79 258.754C181.657 258.623 181.552 258.467 181.48 258.294C181.407 258.122 181.37 257.937 181.37 257.75C181.377 252.223 181.217 246.57 180.89 240.79C180.67 236.977 178.87 234.63 175.49 233.75C166.97 231.52 163.46 237.31 163.21 244.69C155.324 245.017 147.444 245.06 139.57 244.82C136.68 244.74 133.97 244.98 131 245.09C130.839 245.096 130.681 245.139 130.539 245.216C130.397 245.293 130.275 245.403 130.183 245.535C130.092 245.668 130.033 245.819 130.012 245.978C129.99 246.137 130.007 246.299 130.06 246.45C130.167 246.75 130.097 247.207 129.85 247.82C129.744 246.067 128.697 245.257 126.71 245.39C123.984 245.577 121.467 245.613 119.16 245.5C118.314 245.46 118.01 245.037 118.25 244.23C118.957 241.81 119.29 239.47 119.25 237.21C119.245 236.82 119.087 236.448 118.811 236.173C118.534 235.898 118.16 235.743 117.77 235.74L86.3704 235.4C86.1524 235.398 85.9362 235.441 85.736 235.528C85.5358 235.614 85.356 235.741 85.208 235.901C85.0601 236.062 84.9474 236.251 84.8772 236.458C84.807 236.664 84.7808 236.883 84.8004 237.1C85.0004 239.367 85.0104 241.883 84.8304 244.65C84.8053 245.058 84.627 245.442 84.3306 245.725C84.0343 246.009 83.6416 246.171 83.2304 246.18L69.2504 246.47L69.2804 127.17L99.8004 127.11C99.9365 127.11 100.071 127.137 100.197 127.189C100.323 127.242 100.437 127.318 100.532 127.415C100.628 127.512 100.704 127.627 100.755 127.753C100.806 127.879 100.832 128.014 100.83 128.15L100.67 140.18C100.669 140.29 100.69 140.4 100.731 140.502C100.772 140.605 100.832 140.698 100.909 140.777C100.986 140.856 101.078 140.919 101.18 140.962C101.281 141.006 101.39 141.029 101.5 141.03C110.974 141.217 120.474 141.12 130 140.74C130.162 140.732 130.315 140.662 130.427 140.545C130.538 140.428 130.601 140.272 130.6 140.11L130.44 111.88C130.44 111.713 130.52 111.63 130.68 111.63L160.4 111.53C161.02 111.53 161.334 111.22 161.34 110.6L161.63 84.15L301.61 84.11C301.706 84.11 301.8 84.1289 301.888 84.1657C301.976 84.2025 302.056 84.2565 302.123 84.3244C302.19 84.3923 302.243 84.4729 302.279 84.5614C302.314 84.6499 302.332 84.7446 302.33 84.84L302.19 97.09C302.184 97.4366 302.354 97.6066 302.7 97.6L318.2 97.59C318.402 97.59 318.595 97.669 318.738 97.8096C318.88 97.9503 318.96 98.1411 318.96 98.34V113.35C318.96 113.549 319.039 113.74 319.18 113.88C319.321 114.021 319.511 114.1 319.71 114.1L334.98 114.09C335.387 114.09 335.594 114.297 335.6 114.71L336.06 245.43ZM101.46 212.07L101.63 226.18C101.65 227.727 102.434 228.523 103.98 228.57C117.82 228.97 131.637 228.963 145.43 228.55C145.673 228.545 145.904 228.445 146.075 228.272C146.247 228.099 146.345 227.865 146.35 227.62L146.72 212.34C146.723 212.138 146.803 211.945 146.945 211.802C147.087 211.658 147.279 211.575 147.48 211.57L161.87 211.11C162.07 211.105 162.261 211.03 162.413 210.897C162.564 210.764 162.666 210.581 162.7 210.38C163.08 208.12 163.29 205.853 163.33 203.58C163.497 194.413 163.507 184.633 163.36 174.24C163.355 173.748 163.249 173.262 163.049 172.812C162.85 172.362 162.561 171.957 162.2 171.622C161.84 171.286 161.414 171.027 160.95 170.86C160.486 170.693 159.993 170.622 159.5 170.65C155.654 170.87 151.6 170.91 147.34 170.77C147.078 170.762 146.828 170.652 146.646 170.464C146.463 170.275 146.36 170.023 146.36 169.76L146.37 153.4C146.37 153 146.167 152.8 145.76 152.8L102.66 153.15C102.461 153.15 102.271 153.229 102.13 153.37C101.989 153.51 101.91 153.701 101.91 153.9L101.99 169.81C101.997 170.243 101.784 170.453 101.35 170.44C97.7037 170.34 94.2537 170.39 91.0004 170.59C89.6271 170.677 88.2937 171.313 87.0004 172.5C86.7471 172.727 86.5937 173.007 86.5404 173.34C86.3337 174.66 86.2304 175.99 86.2304 177.33C86.1837 187.837 86.2037 198.943 86.2904 210.65C86.2904 210.836 86.3641 211.014 86.4954 211.145C86.6267 211.276 86.8047 211.35 86.9904 211.35L100.68 211.31C101.194 211.31 101.454 211.563 101.46 212.07ZM278.65 195.4C278.11 195.193 278.09 194.947 278.59 194.66C288.43 189.067 298.007 183.26 307.32 177.24C310.62 175.11 314.11 172.59 316.14 169.49C317.374 167.61 317.717 164.907 317.17 161.38C316.02 153.98 308.11 151.38 301.95 155.27C294.43 160.03 287.71 165.21 280.1 170.12C271.7 175.533 263.547 181.253 255.64 187.28C251.71 190.27 248.65 193.98 249.54 199.18C249.96 201.67 253.63 203.77 255.76 205.01C266.314 211.17 278.254 217.76 291.58 224.78C296.91 227.59 308.13 232.34 313.31 227.27C321.07 219.66 317.08 212.38 308.64 208.63C299.087 204.39 289.65 200.11 280.33 195.79C280.09 195.677 279.817 195.61 279.51 195.59C279.21 195.57 278.924 195.507 278.65 195.4Z" fill="#53E755"/>
<path d="M100.68 211.31L86.9904 211.35C86.8047 211.35 86.6267 211.276 86.4954 211.145C86.3641 211.014 86.2904 210.836 86.2904 210.65C86.2037 198.943 86.1837 187.837 86.2304 177.33C86.2304 175.99 86.3337 174.66 86.5404 173.34C86.5937 173.007 86.7471 172.727 87.0004 172.5C88.2937 171.313 89.6271 170.677 91.0004 170.59C94.2537 170.39 97.7037 170.34 101.35 170.44C101.784 170.453 101.997 170.243 101.99 169.81L101.91 153.9C101.91 153.701 101.989 153.51 102.13 153.37C102.271 153.229 102.461 153.15 102.66 153.15L145.76 152.8C146.167 152.8 146.37 153 146.37 153.4L146.36 169.76C146.36 170.023 146.463 170.275 146.646 170.464C146.828 170.652 147.078 170.762 147.34 170.77C151.6 170.91 155.654 170.87 159.5 170.65C159.993 170.622 160.486 170.693 160.95 170.86C161.414 171.027 161.84 171.286 162.2 171.622C162.561 171.957 162.85 172.362 163.049 172.812C163.249 173.262 163.355 173.748 163.36 174.24C163.507 184.633 163.497 194.413 163.33 203.58C163.29 205.853 163.08 208.12 162.7 210.38C162.666 210.581 162.564 210.764 162.413 210.897C162.261 211.03 162.07 211.105 161.87 211.11L147.48 211.57C147.279 211.575 147.087 211.658 146.945 211.802C146.803 211.945 146.723 212.138 146.72 212.34L146.35 227.62C146.345 227.865 146.247 228.099 146.075 228.272C145.904 228.445 145.673 228.545 145.43 228.55C131.637 228.963 117.82 228.97 103.98 228.57C102.434 228.523 101.65 227.727 101.63 226.18L101.46 212.07C101.454 211.563 101.194 211.31 100.68 211.31ZM146.001 171.879C146.001 171.812 145.988 171.746 145.963 171.684C145.938 171.622 145.901 171.565 145.854 171.518C145.807 171.47 145.751 171.432 145.689 171.406C145.627 171.38 145.561 171.366 145.494 171.366L115.275 171.155C115.208 171.154 115.141 171.167 115.079 171.192C115.017 171.217 114.961 171.255 114.913 171.302C114.866 171.349 114.828 171.405 114.801 171.466C114.775 171.528 114.762 171.594 114.761 171.661L114.64 189.021C114.64 189.088 114.652 189.154 114.678 189.216C114.703 189.278 114.74 189.335 114.787 189.382C114.834 189.43 114.89 189.468 114.952 189.494C115.013 189.52 115.08 189.534 115.147 189.534L145.366 189.745C145.433 189.746 145.499 189.733 145.561 189.708C145.623 189.683 145.68 189.645 145.727 189.598C145.775 189.551 145.813 189.495 145.839 189.434C145.865 189.372 145.879 189.306 145.879 189.239L146.001 171.879Z" fill="#070000"/>
<path d="M278.65 195.4C278.924 195.507 279.21 195.57 279.51 195.59C279.817 195.61 280.09 195.677 280.33 195.79C289.65 200.11 299.087 204.39 308.64 208.63C317.08 212.38 321.07 219.66 313.31 227.27C308.13 232.34 296.91 227.59 291.58 224.78C278.254 217.76 266.314 211.17 255.76 205.01C253.63 203.77 249.96 201.67 249.54 199.18C248.65 193.98 251.71 190.27 255.64 187.28C263.547 181.253 271.7 175.533 280.1 170.12C287.71 165.21 294.43 160.03 301.95 155.27C308.11 151.38 316.02 153.98 317.17 161.38C317.717 164.907 317.374 167.61 316.14 169.49C314.11 172.59 310.62 175.11 307.32 177.24C298.007 183.26 288.43 189.067 278.59 194.66C278.09 194.947 278.11 195.193 278.65 195.4Z" fill="#070000"/>
<path d="M145.494 171.366L115.275 171.155C114.993 171.153 114.763 171.38 114.761 171.661L114.64 189.021C114.638 189.302 114.865 189.532 115.147 189.534L145.366 189.745C145.647 189.747 145.877 189.52 145.879 189.239L146.001 171.879C146.003 171.598 145.776 171.368 145.494 171.366Z" fill="#FFFBEA"/>
<path d="M244.43 244.91C244.597 252.483 244.577 257.713 244.37 260.6C244.097 264.567 242.557 267.913 239.75 270.64C228.93 281.15 217.14 287.61 205.04 273.58C204.919 273.437 204.768 273.321 204.599 273.24C204.43 273.159 204.245 273.115 204.058 273.11C203.871 273.106 203.686 273.141 203.514 273.213C203.342 273.285 203.187 273.393 203.06 273.53C199.69 277.09 195.21 280.94 190.07 281.59C185.21 282.2 181.16 281.61 177.25 278.65C169.71 272.95 162 265.07 162.74 254.85C163.007 251.15 163.164 247.763 163.21 244.69C163.46 237.31 166.97 231.52 175.49 233.75C178.87 234.63 180.67 236.977 180.89 240.79C181.217 246.57 181.377 252.223 181.37 257.75C181.37 257.937 181.407 258.122 181.48 258.294C181.552 258.467 181.657 258.623 181.79 258.754C181.923 258.885 182.081 258.989 182.255 259.058C182.428 259.128 182.614 259.163 182.8 259.16L193.2 258.99C193.734 258.983 193.97 258.717 193.91 258.19C193.27 252.81 197.69 244.66 204.21 245.27C212.28 246.03 211.97 252.21 213.24 258.46C213.303 258.759 213.467 259.026 213.705 259.216C213.942 259.406 214.238 259.506 214.54 259.5L224.98 259.34C225.206 259.338 225.423 259.25 225.586 259.094C225.75 258.938 225.848 258.726 225.86 258.5C226.12 254.153 226.227 249.683 226.18 245.09C226.16 243.12 226.35 239.08 227.61 237.49C230.097 234.343 233.534 233.093 237.92 233.74C240.12 234.06 241.77 234.65 242.82 236.81C244.034 239.297 244.57 241.997 244.43 244.91Z" fill="#070000"/>
<path d="M129.85 247.82L129.92 266.85C129.927 268.23 129.24 268.917 127.86 268.91L116.52 268.88C116.27 268.877 116.029 268.969 115.845 269.138C115.661 269.308 115.548 269.541 115.53 269.79L114.87 277.59C114.84 277.943 114.681 278.273 114.424 278.513C114.167 278.754 113.83 278.888 113.48 278.89L86.7004 279.12C86.4226 279.123 86.1549 279.016 85.9548 278.824C85.7547 278.631 85.6382 278.368 85.6304 278.09L85.4004 270.26C85.3943 270.058 85.3471 269.859 85.2619 269.676C85.1766 269.493 85.055 269.329 84.9044 269.195C84.7538 269.06 84.5774 268.957 84.3859 268.893C84.1943 268.828 83.9917 268.804 83.7904 268.82C80.177 269.107 76.7304 269.187 73.4504 269.06C72.3904 269.013 71.047 269.283 69.4204 269.87L69.2504 246.47L83.2304 246.18C83.6416 246.171 84.0343 246.009 84.3306 245.725C84.627 245.442 84.8053 245.058 84.8304 244.65C85.0104 241.883 85.0004 239.367 84.8004 237.1C84.7808 236.883 84.807 236.664 84.8772 236.458C84.9474 236.251 85.0601 236.062 85.208 235.901C85.356 235.741 85.5358 235.614 85.736 235.528C85.9362 235.441 86.1524 235.398 86.3704 235.4L117.77 235.74C118.16 235.743 118.534 235.898 118.811 236.173C119.087 236.448 119.245 236.82 119.25 237.21C119.29 239.47 118.957 241.81 118.25 244.23C118.01 245.037 118.314 245.46 119.16 245.5C121.467 245.613 123.984 245.577 126.71 245.39C128.697 245.257 129.744 246.067 129.85 247.82Z" fill="#01614E"/>
<path d="M336.06 245.43L336.01 267.61C336.01 268.323 335.654 268.68 334.94 268.68L327.25 268.7L321.34 268.76C321.067 268.762 320.804 268.869 320.607 269.059C320.41 269.249 320.293 269.507 320.28 269.78C320.174 271.913 320.06 274.29 319.94 276.91C319.874 278.33 319.07 279.05 317.53 279.07C308.824 279.157 300.74 279.14 293.28 279.02C292.954 279.015 292.632 278.945 292.334 278.814C292.035 278.683 291.766 278.493 291.541 278.257C291.317 278.02 291.142 277.741 291.027 277.436C290.911 277.131 290.858 276.806 290.87 276.48L291.15 269.19C291.156 269.076 291.138 268.961 291.097 268.854C291.057 268.747 290.995 268.649 290.915 268.566C290.836 268.484 290.74 268.419 290.634 268.375C290.529 268.33 290.415 268.309 290.3 268.31L278.7 268.45C278.547 268.451 278.394 268.422 278.252 268.365C278.109 268.307 277.98 268.222 277.87 268.114C277.76 268.007 277.673 267.878 277.613 267.737C277.553 267.595 277.522 267.444 277.52 267.29L277.38 246.19C281.42 245.177 285.367 244.937 289.22 245.47C289.368 245.49 289.517 245.478 289.66 245.436C289.802 245.394 289.934 245.323 290.047 245.227C290.16 245.131 290.252 245.012 290.316 244.878C290.381 244.744 290.416 244.598 290.42 244.45L290.63 237.24C290.643 236.798 290.828 236.378 291.146 236.07C291.463 235.762 291.888 235.59 292.33 235.59L319.13 235.7C319.331 235.699 319.53 235.74 319.715 235.82C319.899 235.9 320.065 236.017 320.203 236.165C320.341 236.312 320.447 236.486 320.515 236.676C320.584 236.866 320.613 237.068 320.6 237.27L320.15 243.8C320.057 245.153 320.687 245.813 322.04 245.78L336.06 245.43Z" fill="#01614E"/>
<path d="M163.21 244.69C163.164 247.763 163.007 251.15 162.74 254.85C162 265.07 169.71 272.95 177.25 278.65C181.16 281.61 185.21 282.2 190.07 281.59C195.21 280.94 199.69 277.09 203.06 273.53C203.187 273.393 203.342 273.285 203.514 273.213C203.686 273.141 203.871 273.106 204.058 273.11C204.245 273.115 204.43 273.159 204.599 273.24C204.768 273.321 204.919 273.437 205.04 273.58C217.14 287.61 228.93 281.15 239.75 270.64C242.557 267.913 244.097 264.567 244.37 260.6C244.577 257.713 244.597 252.483 244.43 244.91C246.444 245.103 248.37 245.207 250.21 245.22C258.49 245.307 266.764 245.267 275.03 245.1C275.557 245.093 275.997 245.14 276.35 245.24C277.164 245.48 277.507 245.797 277.38 246.19L277.52 267.29C277.522 267.444 277.553 267.595 277.613 267.737C277.673 267.878 277.76 268.007 277.87 268.114C277.98 268.222 278.109 268.307 278.252 268.365C278.394 268.422 278.547 268.451 278.7 268.45L290.3 268.31C290.415 268.309 290.529 268.33 290.634 268.375C290.74 268.419 290.836 268.484 290.915 268.566C290.995 268.649 291.057 268.747 291.097 268.854C291.138 268.961 291.156 269.076 291.15 269.19L290.87 276.48C290.858 276.806 290.911 277.131 291.027 277.436C291.142 277.741 291.317 278.02 291.541 278.257C291.766 278.493 292.035 278.683 292.334 278.814C292.632 278.945 292.954 279.015 293.28 279.02C300.74 279.14 308.824 279.157 317.53 279.07C319.07 279.05 319.874 278.33 319.94 276.91C320.06 274.29 320.174 271.913 320.28 269.78C320.293 269.507 320.41 269.249 320.607 269.059C320.804 268.869 321.067 268.762 321.34 268.76L327.25 268.7C328.157 268.673 328.957 268.877 329.65 269.31C329.917 269.477 330.21 269.567 330.53 269.58L335.02 269.72C335.42 269.733 335.63 269.94 335.65 270.34L335.99 275.42L335.94 290.36C335.94 290.536 335.871 290.705 335.748 290.83C335.624 290.956 335.456 291.027 335.28 291.03L319.32 291.32C319.149 291.325 318.986 291.397 318.867 291.52C318.747 291.643 318.68 291.808 318.68 291.98L318.73 306.77C318.732 306.892 318.708 307.012 318.661 307.124C318.614 307.236 318.544 307.337 318.455 307.421C318.367 307.505 318.262 307.569 318.148 307.61C318.033 307.651 317.912 307.668 317.79 307.66C313.004 307.313 308.164 307.343 303.27 307.75C303.045 307.77 302.835 307.873 302.681 308.04C302.528 308.206 302.442 308.424 302.44 308.65L302.37 323.39C302.37 323.573 302.297 323.748 302.165 323.878C302.034 324.007 301.856 324.08 301.67 324.08L263.53 324.11C263.443 324.11 263.356 324.127 263.275 324.161C263.195 324.195 263.121 324.244 263.06 324.307C262.999 324.369 262.95 324.443 262.918 324.524C262.885 324.606 262.869 324.692 262.87 324.78L262.96 338.55C262.962 338.74 262.925 338.928 262.853 339.104C262.781 339.28 262.674 339.44 262.539 339.575C262.404 339.709 262.244 339.816 262.068 339.889C261.891 339.962 261.702 340 261.51 340L144.68 339.62C144.154 339.613 143.894 339.347 143.9 338.82L144.06 325.34C144.062 325.159 144.028 324.979 143.96 324.811C143.892 324.643 143.792 324.49 143.666 324.361C143.54 324.232 143.39 324.129 143.224 324.059C143.058 323.988 142.88 323.951 142.7 323.95L102.36 323.57C102.15 323.567 101.949 323.483 101.801 323.335C101.653 323.187 101.57 322.988 101.57 322.78L101.48 309.29C101.474 308.776 101.28 308.283 100.936 307.902C100.592 307.521 100.121 307.278 99.6103 307.22C95.8503 306.8 91.7937 306.957 87.4403 307.69C87.2918 307.715 87.1396 307.707 86.9944 307.668C86.8492 307.628 86.7144 307.558 86.5993 307.462C86.4843 307.366 86.3917 307.246 86.328 307.111C86.2643 306.976 86.2309 306.829 86.2303 306.68L86.1603 292.09C86.1537 291.037 85.627 290.54 84.5803 290.6L70.5903 291.35C70.4707 291.357 70.3509 291.339 70.2386 291.297C70.1263 291.255 70.0241 291.19 69.9384 291.106C69.8528 291.023 69.7855 290.922 69.7411 290.81C69.6966 290.699 69.6759 290.58 69.6803 290.46L69.7804 287.32L69.4204 269.87C71.047 269.283 72.3904 269.013 73.4504 269.06C76.7304 269.187 80.177 269.107 83.7904 268.82C83.9917 268.804 84.1943 268.828 84.3859 268.893C84.5774 268.957 84.7538 269.06 84.9044 269.195C85.055 269.329 85.1766 269.493 85.2619 269.676C85.3471 269.859 85.3943 270.058 85.4004 270.26L85.6304 278.09C85.6382 278.368 85.7547 278.631 85.9548 278.824C86.1549 279.016 86.4226 279.123 86.7004 279.12L113.48 278.89C113.83 278.888 114.167 278.754 114.424 278.513C114.681 278.273 114.84 277.943 114.87 277.59L115.53 269.79C115.548 269.541 115.661 269.308 115.845 269.138C116.029 268.969 116.27 268.877 116.52 268.88L127.86 268.91C129.24 268.917 129.927 268.23 129.92 266.85L129.85 247.82C130.097 247.207 130.167 246.75 130.06 246.45C130.007 246.299 129.99 246.137 130.012 245.978C130.033 245.819 130.092 245.668 130.183 245.535C130.275 245.403 130.397 245.293 130.539 245.216C130.681 245.139 130.839 245.096 131 245.09C133.97 244.98 136.68 244.74 139.57 244.82C147.444 245.06 155.324 245.017 163.21 244.69Z" fill="#0ABD50"/>
<path d="M352.66 272.05L352.73 328.76C352.732 328.883 352.708 329.005 352.662 329.119C352.615 329.233 352.546 329.337 352.459 329.424C352.371 329.511 352.267 329.581 352.152 329.628C352.038 329.676 351.915 329.7 351.79 329.7L336.84 329.61C336.612 329.61 336.394 329.701 336.232 329.862C336.071 330.023 335.98 330.242 335.98 330.47L335.97 344.15C335.97 344.429 335.86 344.698 335.663 344.896C335.467 345.095 335.2 345.207 334.92 345.21L319.73 345.41C319.357 345.41 319.174 345.593 319.18 345.96L319.2 358.07C319.2 358.196 319.176 358.321 319.127 358.437C319.079 358.554 319.008 358.66 318.919 358.749C318.83 358.838 318.724 358.909 318.608 358.957C318.491 359.005 318.366 359.03 318.24 359.03L85.6803 359.07C85.5845 359.07 85.4897 359.051 85.4015 359.013C85.3134 358.975 85.2337 358.919 85.1674 358.849C85.101 358.779 85.0494 358.696 85.0155 358.605C84.9816 358.514 84.9663 358.417 84.9703 358.32L85.5103 345.94C85.5145 345.847 85.4991 345.753 85.4651 345.666C85.431 345.579 85.379 345.499 85.3124 345.432C85.2458 345.366 85.1659 345.313 85.0778 345.279C84.9897 345.244 84.8952 345.227 84.8003 345.23L69.7303 345.65C69.6262 345.653 69.5226 345.634 69.4257 345.596C69.3287 345.558 69.2404 345.501 69.1658 345.429C69.0912 345.356 69.032 345.269 68.9915 345.173C68.9511 345.077 68.9303 344.974 68.9303 344.87L68.9703 330.07C68.9704 330.001 68.9563 329.932 68.9291 329.869C68.9019 329.805 68.8619 329.747 68.8116 329.699C68.7614 329.65 68.7017 329.612 68.6363 329.587C68.5708 329.561 68.5008 329.549 68.4303 329.55L53.4803 329.86C53.3578 329.863 53.236 329.841 53.1221 329.796C53.0082 329.751 52.9044 329.683 52.8168 329.598C52.7293 329.512 52.6597 329.41 52.6122 329.297C52.5647 329.184 52.5403 329.063 52.5403 328.94L52.4903 287.14C52.6703 287.273 52.7604 287.547 52.7604 287.96C52.7604 288.22 52.847 288.257 53.0204 288.07C53.047 288.05 53.067 288.023 53.0804 287.99C53.127 287.903 53.1404 287.813 53.1204 287.72C52.8404 286.193 53.1437 284.997 54.0304 284.13C54.6104 283.557 55.5404 282.987 56.8204 282.42C57.787 282 58.8171 281.617 59.9104 281.27C61.3104 280.823 62.6304 280.197 63.8704 279.39C65.0804 278.6 66.3604 278.59 67.3404 277.44C67.4871 277.273 67.6671 277.177 67.8804 277.15C68.0004 277.137 68.0837 277.183 68.1304 277.29C68.2837 277.63 68.347 277.613 68.3204 277.24C68.3137 277.047 68.3737 276.873 68.5004 276.72C68.7071 276.473 68.8104 276.51 68.8104 276.83V277.29C68.8104 277.537 68.9071 277.733 69.1004 277.88C69.5004 278.213 69.6871 278.703 69.6604 279.35C69.5804 281.23 69.6204 283.887 69.7804 287.32L69.6803 290.46C69.6759 290.58 69.6966 290.699 69.7411 290.81C69.7855 290.922 69.8528 291.023 69.9384 291.106C70.0241 291.19 70.1263 291.255 70.2386 291.297C70.3509 291.339 70.4707 291.357 70.5903 291.35L84.5803 290.6C85.627 290.54 86.1537 291.037 86.1603 292.09L86.2303 306.68C86.2309 306.829 86.2643 306.976 86.328 307.111C86.3917 307.246 86.4843 307.366 86.5993 307.462C86.7144 307.558 86.8492 307.628 86.9944 307.668C87.1396 307.707 87.2918 307.715 87.4403 307.69C91.7937 306.957 95.8503 306.8 99.6103 307.22C100.121 307.278 100.592 307.521 100.936 307.902C101.28 308.283 101.474 308.776 101.48 309.29L101.57 322.78C101.57 322.988 101.653 323.187 101.801 323.335C101.949 323.483 102.15 323.567 102.36 323.57L142.7 323.95C142.88 323.951 143.058 323.988 143.224 324.059C143.39 324.129 143.54 324.232 143.666 324.361C143.792 324.49 143.892 324.643 143.96 324.811C144.028 324.979 144.062 325.159 144.06 325.34L143.9 338.82C143.894 339.347 144.154 339.613 144.68 339.62L261.51 340C261.702 340 261.891 339.962 262.068 339.889C262.244 339.816 262.404 339.709 262.539 339.575C262.674 339.44 262.781 339.28 262.853 339.104C262.925 338.928 262.962 338.74 262.96 338.55L262.87 324.78C262.869 324.692 262.885 324.606 262.918 324.524C262.95 324.443 262.999 324.369 263.06 324.307C263.121 324.244 263.195 324.195 263.275 324.161C263.356 324.127 263.443 324.11 263.53 324.11L301.67 324.08C301.856 324.08 302.034 324.007 302.165 323.878C302.297 323.748 302.37 323.573 302.37 323.39L302.44 308.65C302.442 308.424 302.528 308.206 302.681 308.04C302.835 307.873 303.045 307.77 303.27 307.75C308.164 307.343 313.004 307.313 317.79 307.66C317.912 307.668 318.033 307.651 318.148 307.61C318.262 307.569 318.367 307.505 318.455 307.421C318.544 307.337 318.614 307.236 318.661 307.124C318.708 307.012 318.732 306.892 318.73 306.77L318.68 291.98C318.68 291.808 318.747 291.643 318.867 291.52C318.986 291.397 319.149 291.325 319.32 291.32L335.28 291.03C335.456 291.027 335.624 290.956 335.748 290.83C335.871 290.705 335.94 290.536 335.94 290.36L335.99 275.42C336.39 275.153 336.534 274.817 336.42 274.41C336.348 274.145 336.342 273.866 336.403 273.598C336.465 273.33 336.591 273.08 336.772 272.872C336.953 272.664 337.182 272.503 337.44 272.403C337.697 272.303 337.976 272.268 338.25 272.3C340.244 272.533 342.137 272.763 343.93 272.99C345.09 273.13 346.204 273.42 347.27 273.86C348.344 274.307 349.494 274.487 350.72 274.4C350.9 274.387 351.081 274.414 351.25 274.479C351.418 274.543 351.571 274.644 351.696 274.773C351.822 274.903 351.918 275.058 351.977 275.229C352.037 275.399 352.058 275.58 352.04 275.76C352.034 275.813 352.047 275.86 352.08 275.9C352.34 276.2 352.464 276.153 352.45 275.76C352.424 274.493 352.494 273.257 352.66 272.05Z" fill="#01614E"/>
<path d="M0.420308 336.64C0.893642 352.96 1.06365 369.283 0.930318 385.61C0.883651 391.943 0.906992 398.603 1.00033 405.59C1.18033 418.77 1.10699 431.953 0.780324 445.14C0.633657 445.18 0.507047 445.137 0.400381 445.01C0.327047 444.93 0.290365 444.813 0.290365 444.66C0.383698 438.7 0.34039 430.013 0.16039 418.6C-0.11961 401.167 -0.0330252 373.847 0.420308 336.64Z" fill="#01614E"/>
<path d="M46.3104 364.56C45.7037 364.567 45.2637 364.653 44.9904 364.82L41.8403 364.74C43.2403 364.04 44.7304 363.98 46.3104 364.56Z" fill="#292037"/>
<path d="M372.7 364.64L372.65 379.09C372.644 379.57 372.4 379.81 371.92 379.81L359.21 379.83C359.173 379.831 359.135 379.841 359.102 379.859C359.069 379.877 359.04 379.903 359.019 379.934C358.997 379.965 358.984 380.001 358.979 380.039C358.974 380.076 358.978 380.114 358.99 380.15C359.63 381.903 360.097 383.683 360.39 385.49C360.81 388.08 360.37 390.61 360.8 393.17C360.874 393.61 360.687 393.83 360.24 393.83C343.18 393.91 325.74 393.51 308.96 393.57C260.794 393.75 212.627 393.83 164.46 393.81C157.787 393.81 151.12 393.857 144.46 393.95C132.894 394.11 121.64 394.123 110.7 393.99C91.6204 393.77 67.5604 394.62 45.7504 393.62C44.5171 393.56 43.9204 392.917 43.9604 391.69L44.2804 381.63C44.288 381.416 44.3771 381.213 44.5296 381.062C44.682 380.912 44.8862 380.825 45.1004 380.82L61.2004 380.4L339.41 380.36L355.74 380.26C355.967 380.26 356.084 380.143 356.09 379.91L356.58 364.82L372.7 364.64Z" fill="#FFFBEA"/>
<path d="M29.4304 364.82L41.8403 364.74L44.9904 364.82L45.1904 379.29C45.2038 380.043 44.8537 380.293 44.1404 380.04C43.7004 379.887 43.2537 379.81 42.8004 379.81C38.5737 379.777 34.2804 379.783 29.9204 379.83C29.8513 379.831 29.7826 379.819 29.7183 379.793C29.6541 379.768 29.5956 379.73 29.5462 379.681C29.4969 379.633 29.4577 379.575 29.4309 379.511C29.4042 379.448 29.3904 379.379 29.3904 379.31L29.4304 364.82Z" fill="#FFFBEA"/>
<path d="M356.58 364.82L356.09 379.91C356.084 380.143 355.967 380.26 355.74 380.26L339.41 380.36C339.517 380.133 339.69 379.963 339.93 379.85C340.25 379.703 340.41 379.453 340.41 379.1L340.5 365.63C340.5 365.317 340.657 365.157 340.97 365.15L356.58 364.82Z" fill="#56546E"/>
<path d="M480.33 420.97C479.944 421.23 479.604 421.18 479.31 420.82C479.213 420.704 479.16 420.558 479.16 420.41L479.22 404.84C479.22 404.436 479.376 404.048 479.656 403.758C479.936 403.467 480.317 403.295 480.72 403.28L496.52 402.62C497.6 402.573 498.13 403.09 498.11 404.17L497.75 419.76C497.73 420.587 497.314 421.067 496.5 421.2C495.86 421.307 495.097 421.34 494.21 421.3C489.59 421.1 484.964 420.99 480.33 420.97Z" fill="#292037"/>
<path d="M275.25 421.25L282.4 421.55C283.5 422.29 284.35 423.26 284.33 424.65C284.224 430.25 284.277 435.873 284.49 441.52C284.497 441.686 284.47 441.852 284.412 442.008C284.353 442.163 284.264 442.305 284.149 442.426C284.034 442.546 283.896 442.642 283.744 442.708C283.591 442.774 283.427 442.809 283.26 442.81L276.19 442.84C276.057 442.841 275.925 442.869 275.802 442.922C275.68 442.974 275.569 443.051 275.476 443.146C275.383 443.242 275.309 443.355 275.261 443.48C275.212 443.604 275.188 443.737 275.19 443.87L275.3 450.17C275.302 450.226 275.292 450.282 275.271 450.334C275.251 450.386 275.22 450.433 275.181 450.473C275.142 450.514 275.095 450.545 275.043 450.567C274.992 450.589 274.936 450.6 274.88 450.6L260.56 450.53C260.484 450.53 260.409 450.515 260.339 450.485C260.269 450.456 260.206 450.413 260.153 450.358C260.101 450.304 260.06 450.24 260.034 450.17C260.008 450.099 259.996 450.025 260 449.95L260.28 443.64C260.286 443.533 260.269 443.426 260.232 443.325C260.195 443.225 260.138 443.133 260.064 443.055C259.99 442.978 259.901 442.916 259.802 442.874C259.704 442.832 259.598 442.81 259.49 442.81L250.46 442.77C250.007 442.77 249.784 442.547 249.79 442.1L249.89 424.2C249.89 423.753 250.08 423.413 250.46 423.18C251.114 422.773 251.62 422.217 251.98 421.51C252.154 421.17 252.434 420.997 252.82 420.99L259.5 420.91C259.874 420.903 260.044 420.713 260.01 420.34C259.704 417.16 259.87 414.007 260.51 410.88C260.584 410.513 260.807 410.33 261.18 410.33L274.71 410.34C274.856 410.34 274.996 410.398 275.099 410.501C275.202 410.604 275.26 410.744 275.26 410.89L275.25 421.25Z" fill="#070000"/>
<path d="M306.57 442.8L303.88 442.04C303.587 441.955 303.328 441.781 303.141 441.542C302.954 441.303 302.849 441.011 302.84 440.71L302.54 427.82L302.96 422.32C302.987 421.98 303.167 421.803 303.5 421.79L313.09 421.4C313.53 421.38 313.75 421.153 313.75 420.72L313.84 411.53C313.843 411.313 313.929 411.106 314.08 410.953C314.232 410.8 314.436 410.713 314.65 410.71L328.12 410.5C328.219 410.499 328.317 410.517 328.409 410.555C328.501 410.593 328.584 410.649 328.654 410.72C328.724 410.79 328.779 410.875 328.816 410.968C328.853 411.06 328.872 411.16 328.87 411.26L328.69 420.51C328.688 420.694 328.758 420.872 328.885 421.004C329.012 421.137 329.186 421.215 329.37 421.22L337.52 421.41C337.651 421.413 337.776 421.466 337.868 421.56C337.959 421.653 338.01 421.779 338.01 421.91L337.95 442.08C337.95 442.553 337.714 442.793 337.24 442.8L328.95 442.87C328.63 442.87 328.47 443.033 328.47 443.36L328.48 450.1C328.48 450.527 328.267 450.73 327.84 450.71C323.414 450.503 318.937 450.56 314.41 450.88C314.299 450.888 314.187 450.873 314.082 450.836C313.977 450.799 313.88 450.741 313.798 450.665C313.717 450.589 313.652 450.497 313.607 450.395C313.563 450.292 313.54 450.182 313.54 450.07L313.56 443.62C313.561 443.44 313.492 443.268 313.368 443.139C313.245 443.01 313.077 442.935 312.9 442.93L306.57 442.8Z" fill="#070000"/>
<path d="M182.6 426.03L182.51 441C182.504 442.1 181.95 442.65 180.85 442.65L29.3004 442.83L29.0304 426.21C29.0291 426.151 29.0395 426.093 29.061 426.039C29.0825 425.984 29.1147 425.934 29.1557 425.892C29.1967 425.85 29.2456 425.817 29.2997 425.794C29.3537 425.772 29.4118 425.76 29.4704 425.76L38.9304 425.89C39.0324 425.891 39.1336 425.872 39.2281 425.834C39.3227 425.796 39.4088 425.74 39.4813 425.668C39.5539 425.596 39.6115 425.511 39.6509 425.417C39.6902 425.323 39.7104 425.222 39.7104 425.12L39.7004 418.02C39.6937 417.6 39.9004 417.397 40.3204 417.41C44.8871 417.57 49.5004 417.65 54.1604 417.65C93.4671 417.67 133.314 417.657 173.7 417.61C174.12 417.61 174.33 417.823 174.33 418.25L174.26 425.39C174.254 426.05 174.577 426.367 175.23 426.34L182.6 426.03Z" fill="#070000"/>
<path d="M370.76 426.02L370.85 440.63L370.77 442.7C370.757 443.047 370.577 443.22 370.23 443.22L354.47 443.36C354.124 443.367 353.95 443.197 353.95 442.85L353.96 426.14C353.96 425.971 354.026 425.809 354.144 425.687C354.261 425.566 354.422 425.495 354.59 425.49C359.897 425.377 365.02 425.33 369.96 425.35C370.307 425.35 370.574 425.573 370.76 426.02Z" fill="#292037"/>
<path d="M29.1304 446.63C29.1571 446.37 28.9237 446.167 28.4304 446.02C27.9037 446.04 27.5204 445.983 27.2804 445.85C26.9337 445.657 26.8971 445.417 27.1704 445.13L29.3004 442.83L180.85 442.65C181.95 442.65 182.504 442.1 182.51 441L182.6 426.03C184.2 425.377 185.637 425.457 186.91 426.27C187.21 426.463 187.374 426.737 187.4 427.09C187.767 431.63 187.777 436.56 187.43 441.88C187.37 442.7 187.11 443.37 186.65 443.89C183.44 447.47 178.91 446.97 174.57 447.03C156.52 447.28 137.86 446.83 119.7 446.89C89.8737 446.983 60.0437 446.993 30.2104 446.92C29.9504 446.92 29.5904 446.823 29.1304 446.63Z" fill="#FFFBEA"/>
<path d="M370.85 440.63L370.76 426.02C371.9 425.573 372.47 426.6 372.47 429.1C372.477 433.093 372.437 437.09 372.35 441.09C372.33 441.95 372.097 442.547 371.65 442.88C371.344 443.1 371.13 443.033 371.01 442.68C370.804 442.06 370.75 441.377 370.85 440.63Z" fill="#FFFBEA"/>
<path d="M302.54 427.82L302.84 440.71C302.849 441.011 302.954 441.303 303.141 441.542C303.328 441.781 303.587 441.955 303.88 442.04L306.57 442.8L302.9 442.92C302.799 442.923 302.697 442.905 302.603 442.866C302.508 442.828 302.422 442.771 302.35 442.698C302.278 442.625 302.221 442.538 302.184 442.442C302.146 442.346 302.128 442.243 302.13 442.14L302.54 427.82Z" fill="#56546E"/>
<path d="M403.41 462.44L403.2 479.29C403.194 479.61 403.03 479.77 402.71 479.77L385.35 479.84L385.56 464.35C385.563 464.047 385.681 463.757 385.892 463.539C386.102 463.321 386.388 463.193 386.69 463.18L403.41 462.44Z" fill="#292037"/>
<path d="M67.2303 479.66L368.01 479.83L367.98 495.51C367.98 496.043 368.19 496.555 368.564 496.935C368.939 497.315 369.447 497.532 369.98 497.54L378.18 497.68L68.9804 498.06L68.9204 480.71C68.9204 480.363 68.7737 480.103 68.4804 479.93C68.1604 479.743 67.7436 479.653 67.2303 479.66Z" fill="#292037"/>
<path d="M378.18 497.68L384.04 497.64C384.474 497.633 384.69 497.85 384.69 498.29L384.63 512.36C384.63 512.64 384.487 512.78 384.2 512.78C364.767 512.547 345.27 512.467 325.71 512.54C293.09 512.66 258.3 512.24 223.22 512.36C171.974 512.527 120.814 512.607 69.7403 512.6C69.5202 512.6 69.3091 512.511 69.1534 512.354C68.9977 512.196 68.9103 511.983 68.9103 511.76L68.9804 498.06L378.18 497.68Z" fill="#56546E"/>
</svg>
